<svg xmlns="http://www.w3.org/2000/svg" xmlns:xlink="http://www.w3.org/1999/xlink" width="166" zoomAndPan="magnify" viewBox="0 0 124.5 62.999997" height="84" preserveAspectRatio="xMidYMid meet" version="1.0"><defs><clipPath id="6be0ba96e3"><path d="M 49.730469 24.042969 L 68.554688 24.042969 L 68.554688 42.867188 L 49.730469 42.867188 Z M 49.730469 24.042969 " clip-rule="nonzero"/></clipPath><clipPath id="62286700ae"><path d="M 21 10 L 99 10 L 99 60.882812 L 21 60.882812 Z M 21 10 " clip-rule="nonzero"/></clipPath><clipPath id="89ddd06ee5"><path d="M 20.78125 1.867188 L 99.964844 1.867188 L 99.964844 60.882812 L 20.78125 60.882812 Z M 20.78125 1.867188 " clip-rule="nonzero"/></clipPath></defs><g clip-path="url(#6be0ba96e3)"><path fill="#e55812" d="M 49.730469 24.042969 L 68.554688 24.042969 L 68.554688 42.867188 L 49.730469 42.867188 Z M 49.730469 24.042969 " fill-opacity="1" fill-rule="nonzero"/></g><g clip-path="url(#62286700ae)"><path fill="#efe7da" d="M 25.503906 38.648438 C 23.730469 37.570312 21.957031 34.847656 21.957031 31.078125 C 21.957031 27.308594 23.730469 24.589844 25.5 23.511719 C 24.730469 25.835938 24.304688 28.394531 24.304688 31.078125 C 24.304688 33.765625 24.730469 36.324219 25.503906 38.648438 Z M 95.070312 23.511719 C 95.839844 25.835938 96.269531 28.394531 96.269531 31.078125 C 96.269531 33.765625 95.839844 36.324219 95.070312 38.648438 C 96.839844 37.570312 98.613281 34.847656 98.613281 31.078125 C 98.613281 27.308594 96.839844 24.589844 95.070312 23.511719 Z M 93.953125 31.078125 C 93.953125 20.003906 85.160156 10.992188 74.351562 10.992188 L 46.222656 10.992188 C 35.414062 10.992188 26.621094 20.003906 26.621094 31.078125 C 26.621094 42.15625 35.414062 51.164062 46.222656 51.164062 L 66.101562 51.164062 L 63.9375 57.613281 C 63.9375 59.703125 65.589844 60.523438 67.628906 60.523438 C 67.628906 60.523438 82.199219 53.121094 89.257812 44.097656 C 92.179688 40.589844 93.953125 36.042969 93.953125 31.078125 Z M 93.953125 31.078125 " fill-opacity="1" fill-rule="nonzero"/></g><path fill="#e55812" d="M 74.351562 42.492188 L 46.222656 42.492188 C 40.082031 42.492188 35.085938 37.371094 35.085938 31.078125 C 35.085938 24.785156 40.082031 19.667969 46.222656 19.667969 L 74.351562 19.667969 C 80.492188 19.667969 85.488281 24.785156 85.488281 31.078125 C 85.488281 37.371094 80.492188 42.492188 74.351562 42.492188 Z M 46.222656 19.839844 C 40.175781 19.839844 35.253906 24.882812 35.253906 31.078125 C 35.253906 37.277344 40.175781 42.316406 46.222656 42.316406 L 74.351562 42.316406 C 80.398438 42.316406 85.316406 37.277344 85.316406 31.078125 C 85.316406 24.882812 80.398438 19.839844 74.351562 19.839844 Z M 74.351562 19.753906 L 46.222656 19.753906 C 40.117188 19.753906 35.167969 24.824219 35.167969 31.078125 C 35.167969 37.335938 40.117188 42.40625 46.222656 42.40625 L 74.351562 42.40625 C 80.453125 42.40625 85.402344 37.335938 85.402344 31.078125 C 85.402344 24.824219 80.453125 19.753906 74.351562 19.753906 Z M 50.910156 37.601562 C 47.394531 37.601562 44.546875 34.679688 44.546875 31.078125 C 44.546875 27.476562 47.394531 24.558594 50.910156 24.558594 C 54.421875 24.558594 57.273438 27.476562 57.273438 31.078125 C 57.273438 34.679688 54.421875 37.601562 50.910156 37.601562 Z M 69.664062 37.601562 C 66.148438 37.601562 63.300781 34.679688 63.300781 31.078125 C 63.300781 27.476562 66.148438 24.558594 69.664062 24.558594 C 73.175781 24.558594 76.027344 27.476562 76.027344 31.078125 C 76.027344 34.679688 73.175781 37.601562 69.664062 37.601562 Z M 50.910156 25.65625 C 47.988281 25.65625 45.617188 28.085938 45.617188 31.078125 C 45.617188 34.074219 47.988281 36.503906 50.910156 36.503906 C 53.832031 36.503906 56.199219 34.074219 56.199219 31.078125 C 56.199219 28.085938 53.832031 25.65625 50.910156 25.65625 Z M 69.664062 25.65625 C 66.742188 25.65625 64.371094 28.085938 64.371094 31.078125 C 64.371094 34.074219 66.742188 36.503906 69.664062 36.503906 C 72.585938 36.503906 74.953125 34.074219 74.953125 31.078125 C 74.953125 28.085938 72.585938 25.65625 69.664062 25.65625 Z M 69.664062 25.65625 " fill-opacity="1" fill-rule="nonzero"/><path fill="#ffffff" d="M 50.910156 29.019531 C 50.910156 30.15625 50.007812 31.082031 48.902344 31.082031 C 47.789062 31.082031 46.890625 30.15625 46.890625 29.019531 C 46.890625 27.882812 47.789062 26.960938 48.902344 26.960938 C 50.007812 26.960938 50.910156 27.882812 50.910156 29.019531 Z M 67.652344 26.960938 C 66.542969 26.960938 65.644531 27.882812 65.644531 29.019531 C 65.644531 30.15625 66.542969 31.082031 67.652344 31.082031 C 68.761719 31.082031 69.664062 30.15625 69.664062 29.019531 C 69.664062 27.882812 68.761719 26.960938 67.652344 26.960938 Z M 67.652344 26.960938 " fill-opacity="1" fill-rule="nonzero"/><g clip-path="url(#89ddd06ee5)"><path fill="#494343" d="M 93.484375 21.789062 C 93.128906 21.789062 92.789062 21.847656 92.464844 21.953125 C 92.464844 21.953125 92.464844 21.957031 92.464844 21.957031 C 89.167969 15.113281 82.289062 10.390625 74.351562 10.390625 L 46.222656 10.390625 C 38.28125 10.390625 31.402344 15.113281 28.109375 21.957031 C 28.109375 21.957031 28.109375 21.953125 28.109375 21.953125 C 28.066406 21.941406 28.023438 21.933594 27.984375 21.921875 L 27.730469 5.503906 C 28.492188 5.285156 29.054688 4.574219 29.054688 3.726562 C 29.054688 2.699219 28.242188 1.871094 27.242188 1.871094 C 26.242188 1.871094 25.429688 2.699219 25.429688 3.726562 C 25.429688 4.546875 25.953125 5.234375 26.671875 5.480469 C 26.65625 5.8125 26.652344 6.121094 26.652344 6.316406 L 26.394531 21.867188 C 23.617188 22.417969 20.78125 26.171875 20.78125 31.078125 C 20.78125 35.984375 23.621094 39.742188 26.398438 40.292969 C 28.117188 51.386719 35.785156 58.777344 46.222656 58.777344 L 47.09375 58.777344 C 47.410156 60.039062 48.515625 60.976562 49.847656 60.976562 L 54.976562 60.976562 C 56.550781 60.976562 57.824219 59.671875 57.824219 58.058594 C 57.824219 56.445312 56.550781 55.136719 54.976562 55.136719 L 49.847656 55.136719 C 48.433594 55.136719 47.273438 56.191406 47.046875 57.570312 L 46.222656 57.570312 C 36.484375 57.570312 29.304688 50.6875 27.597656 40.328125 C 27.773438 40.300781 27.945312 40.257812 28.109375 40.207031 C 31.40625 47.046875 38.285156 51.769531 46.222656 51.769531 L 65.277344 51.769531 L 63.351562 57.511719 L 63.351562 57.613281 C 63.351562 59.8125 64.949219 61.125 67.628906 61.125 L 67.769531 61.125 L 67.890625 61.0625 C 68.648438 60.679688 82.800781 53.40625 89.777344 44.40625 C 90.828125 43.128906 91.730469 41.71875 92.460938 40.207031 C 92.789062 40.308594 93.128906 40.367188 93.484375 40.367188 C 96.460938 40.367188 99.789062 36.394531 99.789062 31.078125 C 99.789062 25.761719 96.460938 21.789062 93.484375 21.789062 Z M 21.957031 31.078125 C 21.957031 27.308594 23.730469 24.589844 25.5 23.511719 C 24.730469 25.835938 24.304688 28.394531 24.304688 31.078125 C 24.304688 33.765625 24.730469 36.324219 25.5 38.648438 C 23.730469 37.570312 21.957031 34.847656 21.957031 31.078125 Z M 67.492188 59.917969 C 66.132812 59.894531 64.582031 59.472656 64.527344 57.710938 L 66.519531 51.769531 L 74.351562 51.769531 C 77.261719 51.769531 80.027344 51.128906 82.527344 49.988281 C 76.035156 55.390625 68.546875 59.371094 67.492188 59.917969 Z M 92.390625 37.222656 C 92.316406 37.3125 92.242188 37.402344 92.171875 37.492188 C 92.144531 37.527344 92.113281 37.546875 92.082031 37.570312 C 91.507812 39.773438 90.207031 41.96875 88.496094 44.082031 C 85.015625 48.054688 79.964844 50.5625 74.351562 50.5625 L 46.222656 50.5625 C 35.738281 50.5625 27.210938 41.824219 27.210938 31.078125 C 27.210938 20.335938 35.738281 11.59375 46.222656 11.59375 L 74.351562 11.59375 C 84.835938 11.59375 93.363281 20.335938 93.363281 31.078125 C 93.363281 33.226562 93.019531 35.292969 92.390625 37.222656 Z M 95.070312 38.648438 C 95.839844 36.324219 96.269531 33.765625 96.269531 31.078125 C 96.269531 28.394531 95.839844 25.835938 95.070312 23.511719 C 96.839844 24.589844 98.613281 27.308594 98.613281 31.078125 C 98.613281 34.847656 96.839844 37.570312 95.070312 38.648438 Z M 95.070312 38.648438 " fill-opacity="1" fill-rule="nonzero"/></g></svg>